HIERARCHY
ROOT Hips
{
  OFFSET 5.72205e-005 65.662 3.42586
  CHANNELS 6 Xposition Yposition Zposition Zrotation Xrotation Yrotation
  JOINT Chest
  {
    OFFSET 0 8.7983 -4.7612
    CHANNELS 3 Zrotation Xrotation Yrotation
    JOINT Chest2
    {
      OFFSET 0 8.0291 0.4195
      CHANNELS 3 Zrotation Xrotation Yrotation
      JOINT Chest3
      {
        OFFSET 0 9.9351 -2.2114
        CHANNELS 3 Zrotation Xrotation Yrotation
        JOINT Neck
        {
          OFFSET 0 22.3885 -0.4656
          CHANNELS 3 Zrotation Xrotation Yrotation
          JOINT Head
          {
            OFFSET -0.0001 12.643 3.4389
            CHANNELS 3 Zrotation Xrotation Yrotation
            End Site
            {
              OFFSET 0.0001 17.6655 0.5274
            }
          }
        }
        JOINT LeftCollar
        {
          OFFSET 2.2603 21.606 7.4023
          CHANNELS 3 Zrotation Xrotation Yrotation
          JOINT LeftShoulder
          {
            OFFSET 13.5163 -1.1332 -5.0146
            CHANNELS 3 Zrotation Xrotation Yrotation
            JOINT LeftElbow
            {
              OFFSET -0.0995 -28.05 -0.2431
              CHANNELS 3 Zrotation Xrotation Yrotation
              JOINT LeftWrist
              {
                OFFSET 0.0679 -23.3996 -0.1402
                CHANNELS 3 Zrotation Xrotation Yrotation
                JOINT LeftFinger1
                {
                  OFFSET 0.7932 -9.069 2.5189
                  CHANNELS 3 Zrotation Xrotation Yrotation
                  JOINT LeftFinger11
                  {
                    OFFSET -0.8272 -3.3923 0.5977
                    CHANNELS 3 Zrotation Xrotation Yrotation
                    JOINT LeftFinger12
                    {
                      OFFSET -0.5649 -2.3158 0.4082
                      CHANNELS 3 Zrotation Xrotation Yrotation
                      End Site
                      {
                        OFFSET -0.4919 -1.6479 0.2673
                      }
                    }
                  }
                }
                JOINT LeftFinger2
                {
                  OFFSET 0.9159 -9.2044 0.2193
                  CHANNELS 3 Zrotation Xrotation Yrotation
                  JOINT LeftFinger21
                  {
                    OFFSET 0.0117 -4.1944 -0.0248
                    CHANNELS 3 Zrotation Xrotation Yrotation
                    JOINT LeftFinger22
                    {
                      OFFSET 0.0071 -2.3249 -0.0142
                      CHANNELS 3 Zrotation Xrotation Yrotation
                      End Site
                      {
                        OFFSET -0.1475 -2.0882 0.0028
                      }
                    }
                  }
                }
                JOINT LeftFinger3
                {
                  OFFSET 0.6113 -8.7231 -2.0637
                  CHANNELS 3 Zrotation Xrotation Yrotation
                  JOINT LeftFinger31
                  {
                    OFFSET -0.1927 -3.8059 -0.2383
                    CHANNELS 3 Zrotation Xrotation Yrotation
                    JOINT LeftFinger32
                    {
                      OFFSET -0.1091 -2.1688 -0.1362
                      CHANNELS 3 Zrotation Xrotation Yrotation
                      End Site
                      {
                        OFFSET -0.2358 -1.9176 -0.0906
                      }
                    }
                  }
                }
                JOINT LeftFinger4
                {
                  OFFSET -0.6151 -8.0947 -3.5641
                  CHANNELS 3 Zrotation Xrotation Yrotation
                  JOINT LeftFinger41
                  {
                    OFFSET -0.4882 -2.341 -0.6462
                    CHANNELS 3 Zrotation Xrotation Yrotation
                    JOINT LeftFinger42
                    {
                      OFFSET -0.3575 -1.7167 -0.4742
                      CHANNELS 3 Zrotation Xrotation Yrotation
                      End Site
                      {
                        OFFSET -0.4187 -1.5237 -0.3496
                      }
                    }
                  }
                }
                JOINT LeftFinger0
                {
                  OFFSET -1.42 -1.8761 1.4223
                  CHANNELS 3 Zrotation Xrotation Yrotation
                  JOINT LeftFinger01
                  {
                    OFFSET -1.1471 -3.4929 2.6334
                    CHANNELS 3 Zrotation Xrotation Yrotation
                    JOINT LeftFinger02
                    {
                      OFFSET -0.823 -2.3 1.6571
                      CHANNELS 3 Zrotation Xrotation Yrotation
                      End Site
                      {
                        OFFSET -0.5822 -1.6914 1.1582
                      }
                    }
                  }
                }
              }
            }
          }
        }
        JOINT RightCollar
        {
          OFFSET -2.2603 21.606 7.4023
          CHANNELS 3 Zrotation Xrotation Yrotation
          JOINT RightShoulder
          {
            OFFSET -13.5187 -1.1334 -5.0155
            CHANNELS 3 Zrotation Xrotation Yrotation
            JOINT RightElbow
            {
              OFFSET 0.0994 -28.0499 -0.2431
              CHANNELS 3 Zrotation Xrotation Yrotation
              JOINT RightWrist
              {
                OFFSET -0.0679 -23.3996 -0.1402
                CHANNELS 3 Zrotation Xrotation Yrotation
                JOINT RightFinger1
                {
                  OFFSET -0.7932 -9.0691 2.5189
                  CHANNELS 3 Zrotation Xrotation Yrotation
                  JOINT RightFinger11
                  {
                    OFFSET 0.8272 -3.3923 0.5977
                    CHANNELS 3 Zrotation Xrotation Yrotation
                    JOINT RightFinger12
                    {
                      OFFSET 0.565 -2.3158 0.4082
                      CHANNELS 3 Zrotation Xrotation Yrotation
                      End Site
                      {
                        OFFSET 0.4919 -1.6479 0.2673
                      }
                    }
                  }
                }
                JOINT RightFinger2
                {
                  OFFSET -0.916 -9.2044 0.2193
                  CHANNELS 3 Zrotation Xrotation Yrotation
                  JOINT RightFinger21
                  {
                    OFFSET -0.0117 -4.1944 -0.0248
                    CHANNELS 3 Zrotation Xrotation Yrotation
                    JOINT RightFinger22
                    {
                      OFFSET -0.0071 -2.3249 -0.0142
                      CHANNELS 3 Zrotation Xrotation Yrotation
                      End Site
                      {
                        OFFSET 0.1475 -2.0882 0.0028
                      }
                    }
                  }
                }
                JOINT RightFinger3
                {
                  OFFSET -0.6113 -8.7231 -2.0637
                  CHANNELS 3 Zrotation Xrotation Yrotation
                  JOINT RightFinger31
                  {
                    OFFSET 0.1927 -3.8059 -0.2383
                    CHANNELS 3 Zrotation Xrotation Yrotation
                    JOINT RightFinger32
                    {
                      OFFSET 0.1091 -2.1688 -0.1362
                      CHANNELS 3 Zrotation Xrotation Yrotation
                      End Site
                      {
                        OFFSET 0.2358 -1.9176 -0.0906
                      }
                    }
                  }
                }
                JOINT RightFinger4
                {
                  OFFSET 0.6151 -8.0947 -3.564
                  CHANNELS 3 Zrotation Xrotation Yrotation
                  JOINT RightFinger41
                  {
                    OFFSET 0.4882 -2.341 -0.6462
                    CHANNELS 3 Zrotation Xrotation Yrotation
                    JOINT RightFinger42
                    {
                      OFFSET 0.3574 -1.7166 -0.4742
                      CHANNELS 3 Zrotation Xrotation Yrotation
                      End Site
                      {
                        OFFSET 0.4187 -1.5237 -0.3496
                      }
                    }
                  }
                }
                JOINT RightFinger0
                {
                  OFFSET 1.4199 -1.8761 1.4221
                  CHANNELS 3 Zrotation Xrotation Yrotation
                  JOINT RightFinger01
                  {
                    OFFSET 1.1472 -3.4929 2.6336
                    CHANNELS 3 Zrotation Xrotation Yrotation
                    JOINT RightFinger02
                    {
                      OFFSET 0.8229 -2.3 1.6571
                      CHANNELS 3 Zrotation Xrotation Yrotation
                      End Site
                      {
                        OFFSET 0.5822 -1.6914 1.1582
                      }
                    }
                  }
                }
              }
            }
          }
        }
      }
    }
  }
  JOINT RightHip
  {
    OFFSET -9.412 3.9771 -0.7758
    CHANNELS 3 Zrotation Xrotation Yrotation
    JOINT RightKnee
    {
      OFFSET -0.7531 -40.938 0
      CHANNELS 3 Zrotation Xrotation Yrotation
      JOINT RightAnkle
      {
        OFFSET 0 -40.1986 0
        CHANNELS 3 Zrotation Xrotation Yrotation
        JOINT RightToe
        {
          OFFSET 0 -4.4182 9.239
          CHANNELS 3 Zrotation Xrotation Yrotation
          End Site
          {
            OFFSET 0 0 6.1981
          }
        }
      }
    }
  }
  JOINT LeftHip
  {
    OFFSET 9.4119 3.9773 -0.7758
    CHANNELS 3 Zrotation Xrotation Yrotation
    JOINT LeftKnee
    {
      OFFSET 0.7532 -40.9383 0
      CHANNELS 3 Zrotation Xrotation Yrotation
      JOINT LeftAnkle
      {
        OFFSET 0 -40.1986 0
        CHANNELS 3 Zrotation Xrotation Yrotation
        JOINT LeftToe
        {
          OFFSET 0 -4.4182 9.239
          CHANNELS 3 Zrotation Xrotation Yrotation
          End Site
          {
            OFFSET 0 0 6.1981
          }
        }
      }
    }
  }
}
MOTION
Frames:	4
Frame Time:	0.0333333
0.993474 10.3061 0.688389 2.76664e-007 15.2273 -2.37559e-009 -0.334951 12.419 -0.225727 -0.641918 24.8392 -0.389263 -0.641917 24.8391 -0.389263 1.53721e-005 -0.000532823 1.10281e-005 6.79047e-008 8.81175e-009 -6.71189e-007 -10.3566 0.665534 -28.7912 62.7312 -59.836 23.2583 1.97914 -9.9013 16.9399 24.2918 5.08295 -5.06082 -5.56597e-015 0 9.54166e-015 -3.57812e-015 -1.71327e-006 3.18055e-015 1.59028e-015 0 -0 -5.56597e-015 0 9.54166e-015 -0.0128193 0.00232018 8.37709e-005 -5.96354e-015 1.59028e-015 -3.18055e-015 -5.56597e-015 0 9.54166e-015 -0.0160443 0.00299557 0.000855124 -3.97569e-016 4.77083e-015 9.54166e-015 -5.56597e-015 0 9.54166e-015 -0.0126079 0.00312638 0.0028296 -0 -1.59028e-015 -0 -5.56597e-015 0 9.54166e-015 -3.57812e-015 -1.71327e-006 3.18055e-015 1.59028e-015 0 -0 9.5017 0.473433 23.5201 -60.5727 -65.7952 -10.9138 -3.24397 -5.93251 -17.1682 -24.8988 4.7905 4.68589 -4.77083e-015 0 3.18055e-015 -3.97569e-015 -1.59028e-015 3.18055e-015 -3.18055e-015 0 -6.36111e-015 -4.77083e-015 0 3.18055e-015 0.0129745 0.00231821 -8.47644e-005 2.38542e-015 1.59028e-015 -3.18055e-015 -4.77083e-015 0 3.18055e-015 0.0163437 0.00303517 -0.000874377 -7.95139e-016 -3.18055e-015 3.18055e-015 -4.77083e-015 0 3.18055e-015 0.0145968 0.00368693 -0.00327392 -1.10594e-005 -3.08593e-007 7.1712e-007 -4.77083e-015 0 3.18055e-015 -3.97569e-015 -1.59028e-015 3.18055e-015 -3.18055e-015 0 -6.36111e-015 -52.3001 -48.8135 -40.5496 -155.187 36.1767 161.694 9.65799 34.8406 -10.2127 2.04402e-007 4.36322e-006 -2.48934e-006 52.2526 -48.8432 40.6489 155.305 36.1693 -161.735 -9.58309 34.5561 10.3107 -1.21158e-006 1.57543e-006 -1.20197e-006 
0.993411 10.3702 0.583705 1.1946e-007 15.7131 9.38074e-008 -0.333373 12.3082 -0.22775 -0.638244 24.6177 -0.394339 -0.638243 24.6177 -0.394339 1.55826e-005 -0.000538738 1.13808e-005 9.40459e-008 -5.87185e-009 4.16111e-007 -10.2717 0.683445 -29.2094 63.0258 -59.3114 24.0137 1.99901 -9.77393 17.0557 24.3183 4.82839 -4.92298 2.77677e-007 6.84693e-008 1.62323e-006 -2.77677e-007 -1.78981e-006 -1.62323e-006 5.55355e-007 -3.45941e-006 3.24646e-006 2.77677e-007 6.84693e-008 1.62323e-006 -0.0128463 0.00232922 8.81587e-005 -4.31254e-006 -2.00856e-006 3.64905e-006 2.77677e-007 6.84693e-008 1.62323e-006 -0.0160497 0.00298991 0.000860888 6.75868e-015 -1.72143e-006 -0 2.77677e-007 6.84693e-008 1.62323e-006 -0.0125559 0.00311685 0.00282565 -9.08065e-007 -2.01406e-006 1.02511e-006 2.77677e-007 6.84693e-008 1.62323e-006 -2.77677e-007 -1.78981e-006 -1.62323e-006 5.55355e-007 -3.45941e-006 3.24646e-006 9.41864 0.481491 23.9444 -60.4214 -65.3822 -10.9054 -3.25453 -5.83695 -17.2803 -24.9424 4.52812 4.5425 -3.09618e-006 -1.76751e-006 1.32501e-007 -3.88602e-006 3.28265e-006 -2.86784e-006 -2.38542e-015 -4.77083e-015 3.18055e-015 -3.09618e-006 -1.76751e-006 1.32501e-007 0.0129618 0.00231238 -8.2628e-005 7.72533e-006 -2.46218e-006 -8.37311e-006 -3.09618e-006 -1.76751e-006 1.32501e-007 0.0163333 0.00303604 -0.000868962 -3.18055e-015 -1.59028e-015 -3.18055e-015 -3.09618e-006 -1.76751e-006 1.32501e-007 0.014603 0.00368114 -0.00325997 -2.38542e-015 -3.18055e-015 -3.18055e-015 -3.09618e-006 -1.76751e-006 1.32501e-007 -3.88602e-006 3.28265e-006 -2.86784e-006 -2.38542e-015 -4.77083e-015 3.18055e-015 -52.2774 -49.328 -40.7112 -155.219 36.16 161.701 10.0861 34.8588 -10.4098 2.36263e-006 -5.05051e-006 1.04779e-006 52.24 -49.3528 40.8216 155.327 36.1536 -161.741 -10.0071 34.5653 10.5094 7.62522e-007 -1.52244e-005 -3.35792e-006 
0.993347 10.4349 0.478917 -3.50612e-008 16.199 -9.75677e-009 -0.331798 12.1975 -0.229763 -0.634596 24.3962 -0.399379 -0.634596 24.3962 -0.399378 1.49812e-005 -0.000511338 1.11214e-005 1.5287e-007 -1.33207e-005 9.21805e-008 -10.1867 0.700766 -29.6276 63.303 -58.7846 24.753 2.01871 -9.64657 17.1714 24.3454 4.5739 -4.78506 1.98785e-015 -3.18055e-015 -1.59028e-015 1.34456e-006 -5.87948e-007 -1.76228e-006 5.1684e-015 3.18055e-015 3.18055e-015 1.98785e-015 -3.18055e-015 -1.59028e-015 -0.0127917 0.00231884 8.21755e-005 1.19271e-015 1.59028e-015 -3.18055e-015 1.98785e-015 -3.18055e-015 -1.59028e-015 -0.0160557 0.00299488 0.000858025 1.98785e-015 -3.18055e-015 -0 1.98785e-015 -3.18055e-015 -1.59028e-015 -0.0125835 0.00311932 0.00282579 5.96354e-015 1.59028e-015 1.59028e-015 1.98785e-015 -3.18055e-015 -1.59028e-015 1.34456e-006 -5.87948e-007 -1.76228e-006 5.1684e-015 3.18055e-015 3.18055e-015 9.33553 0.48893 24.3687 -60.2728 -64.9695 -10.8997 -3.26489 -5.74121 -17.3924 -24.9867 4.26587 4.399 7.95139e-016 -3.18055e-015 -0 -1.59028e-015 1.72737e-006 -3.18055e-015 3.18055e-015 -6.36111e-015 -0 7.95139e-016 -3.18055e-015 -0 0.0129591 0.00231367 -8.39986e-005 3.49337e-006 1.1032e-006 1.36325e-006 7.95139e-016 -3.18055e-015 -0 0.0163225 0.00303235 -0.000865158 7.95139e-016 3.18055e-015 -6.36111e-015 7.95139e-016 -3.18055e-015 -0 0.014589 0.00367818 -0.00325909 3.18055e-015 1.59028e-015 -3.18055e-015 7.95139e-016 -3.18055e-015 -0 -1.59028e-015 1.72737e-006 -3.18055e-015 3.18055e-015 -6.36111e-015 -0 -52.2737 -49.8331 -40.8873 -155.237 36.1433 161.708 10.5145 34.8758 -10.6073 3.17107e-006 -6.87252e-007 -8.35975e-007 52.2415 -49.856 41.0054 155.338 36.1376 -161.747 -10.4313 34.5732 10.7084 1.81653e-006 -3.81658e-007 1.8038e-006 
0.993286 10.5002 0.374045 1.18505e-007 16.6847 -1.72786e-007 -0.330225 12.0868 -0.231766 -0.630973 24.1748 -0.404382 -0.630973 24.1747 -0.404382 1.37821e-005 -0.000469115 9.63038e-006 4.49996e-009 1.69065e-009 -2.19842e-007 -10.1016 0.717495 -30.0457 63.5628 -58.256 25.4763 2.03813 -9.51901 17.287 24.3733 4.31948 -4.64709 -6.75868e-015 -8.57819e-007 -1.59028e-015 -4.77083e-015 8.57819e-007 -0 -9.93923e-015 -8.57819e-007 -0 -6.75868e-015 -8.57819e-007 -1.59028e-015 -0.0128436 0.00232555 9.08762e-005 5.48717e-007 -6.98673e-007 3.26223e-006 -6.75868e-015 -8.57819e-007 -1.59028e-015 -0.0160718 0.00299422 0.000860635 -3.97569e-015 -8.57863e-007 -1.59028e-015 -6.75868e-015 -8.57819e-007 -1.59028e-015 -0.0126138 0.00312626 0.00283646 -2.42042e-006 4.35364e-007 -1.31632e-006 -6.75868e-015 -8.57819e-007 -1.59028e-015 -4.77083e-015 8.57819e-007 -0 -9.93923e-015 -8.57819e-007 -0 9.25237 0.495812 24.793 -60.1266 -64.5567 -10.8967 -3.27501 -5.64577 -17.5045 -25.0316 4.00372 4.25536 -1.59028e-015 3.18055e-015 -3.18055e-015 -3.95482e-007 1.9073e-006 -1.50266e-006 -2.38542e-015 -1.73506e-006 3.18055e-015 -1.59028e-015 3.18055e-015 -3.18055e-015 0.0129839 0.00232542 -9.00797e-005 -3.55813e-007 -1.9043e-006 -1.54358e-006 -1.59028e-015 3.18055e-015 -3.18055e-015 0.0163768 0.00304213 -0.000878438 -5.15793e-006 8.51548e-007 -9.19895e-006 -1.59028e-015 3.18055e-015 -3.18055e-015 0.0145647 0.00367048 -0.0032565 3.18055e-015 -1.73526e-006 -0 -1.59028e-015 3.18055e-015 -3.18055e-015 -3.95482e-007 1.9073e-006 -1.50266e-006 -2.38542e-015 -1.73506e-006 3.18055e-015 -52.2695 -50.3395 -41.0632 -155.256 36.1265 161.715 10.9431 34.8913 -10.8052 2.38542e-015 1.27222e-014 3.97569e-015 52.2241 -50.3703 41.1748 155.367 36.122 -161.753 -10.8557 34.5797 10.9078 1.21071e-006 -6.72877e-007 1.20285e-006 
